# xmcd
#
# Track frame offsets:
#  182
#  13252
#  28240
#  38995
#  53150
#  65987
#  84267
#  94860
#  101762
#  109652
#  121530
#  137210
#  153660
#  165805
#  178087
#  190032
#  208825
#  220240
#  239232
#  256035
#  269992
#  287745
#  306122
#  320647
#  333335
#
# Disc length: 4634 seconds
#
# Revision: 0
# Processed by: cddbd v1.5.1PL2 Copyright (c) Steve Scherf et al.
# Submitted via: Collectorz.com_Music_Collector 6.9
#
DISCID=7a121819
DTITLE=Jesse Winchester - The Best Of
DYEAR=1900
DGENRE=
TTITLE0=Payday
TTITLE1=Biloxi
TTITLE2=Snow
TTITLE3=The Brand New Tennessee Waltz
TTITLE4=That's A Touch I Like
TTITLE5=Yankee Lady
TTITLE6=Midnight Bus
TTITLE7=Do It
TTITLE8=God's Own Jukebox
TTITLE9=All Your Own Stories
TTITLE10=Mississippi You're On My Mind
TTITLE11=Third Rate Romance
TTITLE12=The End Is Not In Sight
TTITLE13=Defying Gravity
TTITLE14=Let The Rough Side Drag
TTITLE15=Lay Down Your Burden
TTITLE16=Blow On Chilly Wind
TTITLE17=Nothing But A Breeze
TTITLE18=My Songbird
TTITLE19=Seems Like Only Yesterday
TTITLE20=A Touch On The Riany Side
TTITLE21=I'm Looking For A Miracle
TTITLE22=Say What
TTITLE23=Leslie
TTITLE24=Talk Memphis
EXTD=
EXTT0=
EXTT1=
EXTT2=
EXTT3=
EXTT4=
EXTT5=
EXTT6=
EXTT7=
EXTT8=
EXTT9=
EXTT10=
EXTT11=
EXTT12=
EXTT13=
EXTT14=
EXTT15=
EXTT16=
EXTT17=
EXTT18=
EXTT19=
EXTT20=
EXTT21=
EXTT22=
EXTT23=
EXTT24=
PLAYORDER=
